<?xml version="1.0" encoding="UTF-8" standalone="no"?>
<!-- Created with Inkscape (http://www.inkscape.org/) -->

<svg
   xmlns:dc="http://purl.org/dc/elements/1.1/"
   xmlns:cc="http://creativecommons.org/ns#"
   xmlns:rdf="http://www.w3.org/1999/02/22-rdf-syntax-ns#"
   xmlns:svg="http://www.w3.org/2000/svg"
   xmlns="http://www.w3.org/2000/svg"
   xmlns:sodipodi="http://sodipodi.sourceforge.net/DTD/sodipodi-0.dtd"
   xmlns:inkscape="http://www.inkscape.org/namespaces/inkscape"
   width="70.303574mm"
   height="144.00893mm"
   viewBox="0 0 70.303574 144.00893"
   version="1.1"
   id="svg8"
   inkscape:export-filename="C:\Users\estev\Downloads\bitmap.png"
   inkscape:export-xdpi="500.03149"
   inkscape:export-ydpi="500.03149"
   inkscape:version="0.92.4 (5da689c313, 2019-01-14)"
   sodipodi:docname="LOGO.svg">
  <defs
     id="defs2">
    <clipPath
       clipPathUnits="userSpaceOnUse"
       id="clipPath828">
      <rect
         style="opacity:0.54599998;fill:#ffffff;fill-opacity:1;stroke:#ffffff;stroke-width:1.46499991;stroke-miterlimit:4;stroke-dasharray:none;stroke-dashoffset:0;stroke-opacity:1"
         id="rect830"
         width="70.303574"
         height="144.00893"
         x="47.247025"
         y="146.94345" />
    </clipPath>
    <clipPath
       clipPathUnits="userSpaceOnUse"
       id="clipPath836">
      <rect
         style="opacity:0.54599998;fill:#ffffff;fill-opacity:1;stroke:#ffffff;stroke-width:1.36813688;stroke-miterlimit:4;stroke-dasharray:none;stroke-dashoffset:0;stroke-opacity:1"
         id="rect838"
         width="69.924995"
         height="151.54951"
         x="-66.50631"
         y="114.55064" />
    </clipPath>
  </defs>
  <sodipodi:namedview
     id="base"
     pagecolor="#ffffff"
     bordercolor="#666666"
     borderopacity="1.0"
     inkscape:pageopacity="0.0"
     inkscape:pageshadow="2"
     inkscape:zoom="0.98994949"
     inkscape:cx="-194.53352"
     inkscape:cy="219.42191"
     inkscape:document-units="mm"
     inkscape:current-layer="layer1"
     showgrid="false"
     inkscape:pagecheckerboard="false"
     fit-margin-top="0"
     fit-margin-left="0"
     fit-margin-right="0"
     fit-margin-bottom="0"
     inkscape:window-width="2560"
     inkscape:window-height="1017"
     inkscape:window-x="-8"
     inkscape:window-y="-8"
     inkscape:window-maximized="1" />
  <metadata
     id="metadata5">
    <rdf:RDF>
      <cc:Work
         rdf:about="">
        <dc:format>image/svg+xml</dc:format>
        <dc:type
           rdf:resource="http://purl.org/dc/dcmitype/StillImage" />
        <dc:title></dc:title>
      </cc:Work>
    </rdf:RDF>
  </metadata>
  <g
     inkscape:label="Layer 1"
     inkscape:groupmode="layer"
     id="layer1"
     transform="translate(-45.910677,-113.53476)">
    <path
       style="fill:#000000;stroke-width:0.26458332"
       d="m -32.865274,246.73875 c -15.51947,-38.27765 -30.40238,-75.66553 -30.89923,-77.62304 -4.92219,-19.39245 7.5902,-38.78201 27.32433,-42.34255 3.03098,-0.54686 9.00131,-0.54888 12.01995,-0.004 10.53836,1.90203 19.6590999,8.62786 24.51217993,18.07579 2.59454997,5.05106 3.82293997,10.12927 3.82500997,15.81266 0.002,6.0558 -0.57646,8.24171 -5.28195,19.95258 -12.0784299,30.06043 -28.7421699,71.38272 -28.9078299,71.68486 -0.12064,0.22003 -1.11169,-1.90403 -2.59246,-5.55625 z m 5.06166,-59.22934 c 3.51969,-0.34227 6.35177,-1.14588 9.26445,-2.62881 3.07466,-1.5654 5.09342,-3.0412 7.45445,-5.44949 3.0504999,-3.11155 5.3007799,-6.99207 6.6283999,-11.4304 1.14388,-3.82405 1.18469,-10.20282 0.0919,-14.35973 l -0.24479,-0.93115 -2.45364,2.39374 c -2.55613,2.49375 -4.8619599,4.08407 -6.7171299,4.63278 -0.89717,0.26536 -1.38552,0.24923 -2.77813,-0.0918 -1.37501,-0.33667 -3.14482,-0.36303 -3.14482,-0.0468 0,0.038 0.19311,0.53016 0.42914,1.09363 0.31809,0.7594 0.39196,1.50375 0.28547,2.87658 -0.16977,2.18857 -1.28183,7.07065 -2.07924,9.12813 -0.56849,1.46681 -2.06287,4.06903 -2.23683,3.89507 -0.0516,-0.0516 0.25987,-1.01229 0.69215,-2.13489 0.72378,-1.87965 1.85184,-6.60739 1.85034,-7.75487 -2.7e-4,-0.26818 -0.47896,0.40537 -1.06356,1.49677 -1.89563,3.539 -2.39799,4.71127 -2.68758,6.27157 -0.26467,1.42598 -0.22655,1.70011 0.54294,3.90489 0.96145,2.75482 1.00843,3.41434 0.32328,4.53794 -0.99832,1.63719 -4.29307,2.4972 -6.06215,1.58237 -0.61801,-0.31959 -0.79099,-0.31959 -1.22805,0 -0.71424,0.52227 -2.98108,0.4533 -4.26483,-0.12975 -2.31296,-1.0505 -2.73003,-2.60803 -1.53987,-5.75062 0.57275,-1.51232 0.66877,-2.13156 0.57194,-3.68848 -0.10455,-1.68094 -0.28873,-2.19811 -1.81278,-5.09009 -1.33626,-2.53565 -1.71434,-3.07772 -1.78085,-2.55334 -0.10628,0.838 1.12597,5.82282 1.95955,7.92697 0.59726,1.50762 0.60112,1.55435 0.0767,0.92857 -2.55099,-3.04413 -4.65127,-12.55438 -3.54223,-16.03953 0.25767,-0.80972 -0.65542,-0.96355 -2.8102,-0.47346 -1.38133,0.31418 -2.00881,0.33966 -2.8417,0.11538 -2.16409,-0.58272 -7.16304,-4.46432 -8.61555,-6.68981 -0.44676,-0.68451 -0.44857,-0.76778 -0.0305,-1.40578 0.84941,-1.29636 4.75731,-2.43108 7.42445,-2.1558 1.85944,0.19191 3.93716,1.31973 4.69571,2.54891 0.83369,1.35096 2.31109,2.9309 2.74067,2.9309 0.20135,0 0.36609,0.11906 0.36609,0.26458 0,0.38883 -1.23979,0.3221 -2.06366,-0.11107 -0.39295,-0.20661 -1.25024,-0.93053 -1.90509,-1.60872 -0.65484,-0.67819 -1.48828,-1.38822 -1.85208,-1.57784 -0.94073,-0.49034 -3.69197,-0.7552 -5.57474,-0.53668 -1.33398,0.15482 -1.65402,0.29182 -1.88961,0.80889 -0.40795,0.89534 0.14623,1.60813 3.03856,3.90823 3.31623,2.63721 3.38161,2.6661 5.46403,2.41435 0.95694,-0.11569 2.46569,-0.22027 3.35278,-0.2324 1.86029,-0.0254 2.36787,-0.34038 2.74672,-1.70434 0.45746,-1.64695 0.33264,-2.27369 -0.65545,-3.29109 -0.59999,-0.6178 -0.92604,-1.2082 -0.92604,-1.67685 0,-0.72617 0.95313,-2.98421 1.28037,-3.03328 0.0962,-0.0144 4.14844,-0.0442 9.00507,-0.0661 l 8.83022,-0.0399 0.48128,0.61185 c 0.67178,0.85404 1.12064,2.34037 0.93279,3.0888 -0.0869,0.34642 -0.51498,0.88398 -0.9512,1.1946 -0.6881,0.48997 -0.79299,0.72877 -0.79213,1.8035 0.001,1.28515 0.75734,2.92357 1.38419,2.99859 0.18404,0.022 0.98946,0.065 1.78982,0.0956 0.80037,0.0305 2.25534,0.1476 3.23327,0.26012 2.07744,0.23904 1.94212,0.30498 5.8431999,-2.84707 2.50178,-2.02143 2.59131,-2.13034 2.51354,-3.05763 -0.0766,-0.91305 -0.1407,-0.97263 -1.27126,-1.18109 -1.43589,-0.26475 -5.1410099,-0.0217 -5.9212799,0.38844 -0.30856,0.16218 -1.30338,0.98582 -2.21073,1.8303 -1.09215,1.01649 -1.95923,1.59349 -2.56549,1.70723 -1.369,0.25682 -1.73485,0.006 -0.74253,-0.50902 0.4747,-0.24639 1.45979,-1.26836 2.18908,-2.27104 0.97393,-1.33904 1.65699,-1.9833 2.57267,-2.42658 2.27286,-1.10027 5.5289799,-0.93745 8.4642099,0.42326 0.76399,0.35416 1.38907,0.57511 1.38907,0.491 0,-0.44239 -2.27944,-4.61203 -3.28623,-6.01131 -1.35107,-1.87777 -3.9595999,-4.65933 -4.3694899,-4.65933 -0.15498,0 -0.28178,0.29494 -0.28178,0.65542 0,2.25977 -4.1409,9.9068 -6.0375,11.1495 -0.60342,0.39538 -0.61984,0.38557 -0.57114,-0.34111 0.0951,-1.41981 -0.008,-1.8683 -0.64758,-2.81048 l -0.64165,-0.94552 0.5755,-0.38528 c 1.43699,-0.96204 4.27591,-4.14488 6.44068,-7.22094 l 0.57351,-0.81494 -1.35202,-1.00937 c -3.29085,-2.45685 -8.62561,-4.46255 -12.96025,-4.87265 -9.9181,-0.93834 -19.09239,3.28902 -24.94874,11.49596 -5.43394,7.61498 -6.21924,18.45044 -1.97548,27.25744 3.77589,7.83605 11.55157,13.52995 20.1994,14.79142 3.05196,0.44519 3.43726,0.4535 6.63002,0.14303 z m -14.72062,-36.29003 c -2.25999,-2.40719 -5.78652,-10.31923 -4.97203,-11.15514 0.11811,-0.12122 0.3448,-0.0617 0.50375,0.13229 0.15895,0.19398 1.24301,1.57015 2.40902,3.05815 1.16601,1.48801 2.70999,3.15488 3.43105,3.70417 0.72107,0.54929 1.31781,1.09282 1.3261,1.20786 0.008,0.11503 -0.25283,0.57149 -0.58025,1.01435 -0.42744,0.57815 -0.59531,1.172 -0.59531,2.10596 0,0.71541 -0.0535,1.30075 -0.11881,1.30075 -0.0653,0 -0.69693,-0.61578 -1.40352,-1.36839 z m 8.90572,31.82496 c -0.50141,-1.00509 -0.12187,-2.16961 0.64202,-1.96984 0.2826,0.0739 0.59526,0.003 0.69479,-0.15844 0.25752,-0.41667 -0.31155,-1.98531 -0.91999,-2.53594 -0.42772,-0.38708 -0.58388,-0.40759 -0.92812,-0.1219 -0.22764,0.18892 -0.35267,0.50301 -0.27785,0.69798 0.15996,0.41685 -0.26704,0.48111 -0.51636,0.0777 -0.25835,-0.41802 0.13319,-2.79062 0.55131,-3.34077 0.34509,-0.45405 0.4317,-0.41503 1.42258,0.64099 1.00186,1.06771 1.13117,1.12448 2.56159,1.12448 1.41831,0 1.56364,-0.0619 2.48351,-1.05833 0.97774,-1.05909 1.42421,-1.27203 1.70715,-0.81422 0.28424,0.45992 0.65956,2.9255 0.50618,3.32522 -0.22566,0.58804 -0.57673,0.48594 -0.67357,-0.1959 -0.0465,-0.32742 -0.2584,-0.59531 -0.47088,-0.59531 -0.5217,0 -1.59804,1.64298 -1.59804,2.43931 0,0.5438 0.11058,0.62834 0.7276,0.55619 0.66998,-0.0784 0.7342,-0.005 0.81082,0.92557 0.0458,0.55585 -0.0581,1.18093 -0.23083,1.38906 -0.2591,0.3122 -0.1896,0.37841 0.3972,0.37841 1.61277,0 2.77847,-1.17969 2.78724,-2.8207 0.003,-0.6055 -0.2307,-1.85565 -0.51987,-2.77813 -0.96747,-3.08634 -0.59874,-5.17928 1.67245,-9.49303 1.46154,-2.77595 2.03802,-4.67872 1.99529,-6.58585 l -0.033,-1.47333 -0.1969,1.34167 c -0.1083,0.73792 -0.32843,1.58743 -0.48918,1.88779 -0.35899,0.67078 -1.54198,1.00872 -2.05133,0.58599 -0.86725,-0.71975 -0.16939,-2.04151 1.22886,-2.32748 0.86195,-0.17628 1.25265,-0.80153 0.63045,-1.00893 -0.66665,-0.22221 -2.1234,1.15955 -2.89234,2.74347 -0.43656,0.89925 -0.87116,1.71088 -0.96576,1.80361 -0.20115,0.19715 0.9846,-3.12914 1.37652,-3.86145 0.33877,-0.63298 1.61174,-1.29696 2.48652,-1.29696 0.90075,0 0.85183,-0.40423 -0.25724,-2.12559 -1.03022,-1.599 -1.5028,-2.97122 -1.25661,-3.64884 0.0886,-0.24381 0.49816,-0.83438 0.91017,-1.31239 0.50357,-0.58423 0.74911,-1.16252 0.74911,-1.76429 0,-1.51201 -0.1964,-1.74938 -1.30126,-1.57271 -0.63088,0.10088 -1.58899,-0.0294 -2.68418,-0.36497 -2.38237,-0.72999 -7.10925,-0.72999 -9.49162,0 -1.09716,0.33618 -2.05297,0.46591 -2.68643,0.36461 -0.90184,-0.14421 -1.005,-0.0951 -1.24489,0.59308 -0.37139,1.06538 -0.12115,1.99496 0.76581,2.84471 1.15499,1.10656 1.06828,2.47035 -0.29076,4.57304 -1.19344,1.84649 -1.31159,2.41335 -0.50301,2.41335 1.3103,0 2.28239,0.78561 2.98947,2.41598 0.9003,2.07593 0.86078,2.62842 -0.0545,0.76133 -0.97246,-1.98381 -3.22575,-3.4757 -3.22575,-2.13575 0,0.38087 0.21402,0.53369 0.83374,0.59532 1.07237,0.10664 2.07267,1.329 1.64541,2.01067 -0.84018,1.34047 -2.74373,0.0664 -2.74373,-1.83636 0,-0.78216 -0.0841,-1.03919 -0.2769,-0.84638 -0.59669,0.59669 0.21666,3.54829 1.99246,7.23051 0.94922,1.96825 1.86853,4.26067 2.04293,5.09427 0.33133,1.58366 0.24433,2.25854 -0.70844,5.49582 -0.34124,1.15949 -0.36914,1.65941 -0.13725,2.46005 0.32633,1.12674 1.52584,2.03525 2.68931,2.03688 0.69151,10e-4 0.6988,-0.0161 0.32607,-0.76327 z m 158.642644,68.73797 c -3.37096,-0.65347 -6.74062,-3.26637 -8.28392,-6.42352 -1.4025,-2.86908 -1.50566,-4.19648 -1.50566,-19.37242 v -13.86735 h 6.74687 6.74688 v 11.60555 c 0,6.6875 0.11312,12.2095 0.26695,13.03073 0.63061,3.36668 2.13334,4.84098 4.76013,4.67007 3.0264,-0.19691 4.6659,-1.6927 5.589,-5.0991 0.53337,-1.96819 0.58148,-2.87911 0.69519,-13.1609 l 0.12216,-11.04635 h 6.7187 6.7187 v 19.71145 19.71146 h -5.13756 -5.13755 l -0.83739,-2.51354 c -0.46056,-1.38245 -0.95757,-2.51354 -1.10446,-2.51354 -0.14689,0 -1.00027,0.7489 -1.89641,1.66423 -1.85498,1.89471 -4.18239,3.15894 -6.63887,3.60618 -1.82544,0.33236 -6.10141,0.33074 -7.82276,-0.003 z m 40.61354,-0.33702 c -2.20333,-0.71633 -3.56475,-1.54498 -5.112,-3.11149 -1.30021,-1.3164 -2.7679,-4.19224 -3.19672,-6.26374 -0.18968,-0.91634 -0.29024,-6.34747 -0.29024,-15.67657 v -14.27447 h 6.74688 6.74687 v 12.12281 c 0,10.37841 0.0614,12.3296 0.42643,13.55989 0.76531,2.57913 2.03579,3.68605 4.23073,3.68605 2.77719,0 4.73608,-1.51734 5.70156,-4.41639 0.58008,-1.74178 0.60303,-2.18398 0.6943,-13.37684 l 0.0944,-11.57552 h 6.86171 6.86171 v 19.71705 19.71705 l -5.20367,-0.0717 -5.20367,-0.0717 -0.77791,-2.33433 c -0.42785,-1.28388 -0.93805,-2.39578 -1.13378,-2.47089 -0.19883,-0.0763 -0.74087,0.3092 -1.22832,0.87358 -1.54118,1.78442 -2.15866,2.26815 -4.04744,3.17079 -2.33673,1.11672 -3.98019,1.42535 -7.51059,1.41047 -2.17889,-0.009 -3.22318,-0.14677 -4.66024,-0.61397 z M 53.057469,226.14193 v -25.4 h 9.2179 9.2179 l 0.53758,1.91823 c 1.19099,4.24975 9.94071,33.94042 10.03235,34.04306 0.0541,0.0606 0.16949,0.0392 0.25634,-0.0477 0.0868,-0.0868 2.27561,-7.51833 4.86391,-16.5144 2.58831,-8.99608 4.90694,-17.04112 5.15254,-17.87786 l 0.44652,-1.52136 h 9.109351 9.10935 v 25.4 25.4 h -6.2489 -6.248911 l 0.15953,-17.26406 c 0.0877,-9.49523 0.23304,-17.79984 0.32289,-18.45469 0.43892,-3.1992 -0.79691,0.73522 -5.50815,17.53592 l -5.09833,18.18112 -6.54844,7.9e-4 c -3.60164,5.4e-4 -6.54843,-0.0534 -6.54843,-0.11977 0,-0.31383 -10.098,-35.79674 -10.31901,-36.25952 -0.17346,-0.36319 -0.21533,0.17621 -0.13351,1.7198 0.0656,1.23692 0.19459,9.54153 0.28673,18.45468 l 0.16752,16.20573 h -6.11337 -6.11336 z M 14.034716,196.74495 c -2.5451,-0.26788 -6.2881001,-1.30678 -8.2631701,-2.29351 l -1.4431,-0.72097 -0.0433,-6.02232 c -0.0283,-3.93316 0.0485,-5.98122 0.22128,-5.90384 4.84782,2.17088 7.4224901,2.99873 11.4898531,3.69439 4.70019,0.8039 7.46584,0.44895 9.0815,-1.16554 0.85996,-0.85934 0.99219,-1.15419 0.99219,-2.21246 0,-2.22538 -0.98877,-2.95458 -9.33291,-6.88292 -6.291913,-2.96217 -8.9430231,-5.11668 -10.6315631,-8.64008 -2.10682,-4.39619 -1.889,-10.72681 0.49925,-14.51004 2.12974,-3.37373 6.1620401,-5.81441 11.2631431,-6.81739 2.99573,-0.58902 9.00956,-0.51416 12.43541,0.15479 2.97363,0.58066 6.09137,1.52319 8.18452,2.47428 l 1.29269,0.58738 -1.82852,4.63021 c -1.00569,2.54662 -1.94139,4.89044 -2.07935,5.20851 l -0.25082,0.57829 -2.46082,-1.00285 c -3.40747,-1.38864 -5.47737,-1.89343 -8.45495,-2.0619 -3.21452,-0.18188 -4.23646,0.011 -5.38042,1.01538 -1.63242,1.43329 -1.46429,3.25045 0.45098,4.87403 0.47817,0.40535 3.39234,1.95806 6.47592,3.45047 5.97884,2.89366 7.96216,4.09915 9.88945,6.01097 3.86787,3.83681 4.78142,10.85337 2.13943,16.43206 -3.39085,7.15996 -12.02655,10.40923 -24.246693,9.12306 z m 98.656854,-0.10099 c -5.44364,-1.18416 -8.56952,-5.57655 -8.56952,-12.04161 0,-3.87917 0.9015,-6.3781 3.08472,-8.55073 3.11731,-3.10219 9.05037,-4.67755 17.61892,-4.67822 l 2.84427,-2.2e-4 -0.006,-1.12448 c -0.0145,-2.81439 -1.8136,-4.43732 -4.90637,-4.42604 -2.08491,0.008 -5.55308,0.79599 -8.46441,1.92413 -1.30136,0.50428 -2.37906,0.90144 -2.39487,0.88257 -0.3948,-0.47088 -3.76682,-8.77799 -3.62065,-8.91961 0.7748,-0.75069 5.91887,-2.32419 9.60253,-2.93728 3.1577,-0.52556 11.13508,-0.44195 13.22917,0.13865 3.71633,1.03038 6.92558,3.40432 8.42984,6.23571 1.59592,3.00389 1.62433,3.33474 1.62433,18.91402 v 14.18317 l -4.69635,-0.0118 -4.69636,-0.0118 -1.17061,-2.50173 c -0.64384,-1.37597 -1.26539,-2.50175 -1.38121,-2.50175 -0.11582,0 -0.99474,0.77267 -1.95316,1.71703 -2.9052,2.86262 -6.39129,4.13841 -11.15611,4.08277 -0.99077,-0.0116 -2.52902,-0.17931 -3.41834,-0.37277 z m 12.2499,-10.07233 c 1.24193,-0.72783 2.33314,-2.00705 2.5898,-3.03603 0.0919,-0.36843 0.19184,-1.58882 0.22211,-2.71198 l 0.055,-2.0421 -1.45828,0.005 c -2.37726,0.009 -5.04745,0.49382 -6.19236,1.12539 -2.93654,1.61989 -3.03266,6.23086 -0.15155,7.26979 1.29787,0.46801 3.57595,0.1863 4.93526,-0.61031 z m 57.60355,10.09048 c -4.52482,-1.03335 -6.86639,-3.35505 -8.04959,-7.98133 -0.47495,-1.85705 -0.52339,-2.94837 -0.52339,-11.79367 v -9.74726 h -1.32291 -1.32292 v 1.02533 1.02533 l -3.77031,-0.0303 c -3.45728,-0.0278 -3.90114,0.0244 -5.34609,0.62832 -1.13665,0.47509 -1.81678,0.97524 -2.44061,1.79479 -1.5994,2.10116 -1.67215,2.72149 -1.67215,14.2577 v 10.40302 h -6.74688 -6.74687 v -19.71146 -19.71146 h 5.00503 5.00503 l 1.03617,3.10885 c 1.12883,3.38692 1.58033,3.86852 2.30783,2.46169 0.62968,-1.21766 3.06274,-3.53547 4.68644,-4.46446 2.49325,-1.42649 5.30168,-1.90718 8.54526,-1.4626 l 1.25963,0.17265 -0.1519,1.28256 c -0.0835,0.70541 -0.0878,1.28256 -0.009,1.28256 0.0784,0 0.7625,-0.43324 1.52023,-0.96276 1.34075,-0.93693 1.42316,-1.07174 3.07307,-5.02708 l 1.69538,-4.06433 h 4.44484 4.44484 v 3.83646 3.83646 h 4.7625 4.7625 v 5.15937 5.15938 h -4.7625 -4.7625 v 8.06444 c 0,9.03817 0.12333,9.81742 1.68644,10.65571 1.03917,0.55729 3.65323,0.53758 5.89949,-0.0445 0.89021,-0.23068 1.69068,-0.41942 1.77882,-0.41942 0.0882,0 0.16025,2.2056 0.16025,4.90134 v 4.90134 l -0.7276,0.28137 c -3.50121,1.35394 -10.37266,1.94598 -13.71817,1.18196 z M 40.886629,176.53256 V 156.8211 l 5.09323,5.3e-4 5.09323,5.3e-4 0.88648,2.51304 c 0.69888,1.98123 0.99284,2.51305 1.38906,2.51305 0.27642,0 0.50259,-0.10619 0.50259,-0.23597 0,-0.12978 0.54064,-0.8373 1.20143,-1.57225 2.36291,-2.62812 6.36458,-3.93646 11.21536,-3.66684 4.43463,0.24649 6.79298,1.14093 9.29116,3.52379 0.82001,0.78215 1.70238,1.4221 1.96081,1.4221 0.25844,0 1.14623,-0.62508 1.97288,-1.38906 2.61892,-2.42039 5.93545,-3.63081 9.94481,-3.62952 5.65669,0.002 9.99389,2.19636 11.748771,5.94462 1.50255,3.20929 1.44701,2.53187 1.5455,18.85157 l 0.0914,15.14739 h -6.758981 -6.75899 v -11.76093 c 0,-12.08158 -0.10573,-13.59901 -1.08208,-15.52941 -0.70093,-1.38586 -2.43906,-2.18963 -4.20868,-1.94624 -2.59349,0.35669 -4.16627,2.2076 -4.8806,5.74366 -0.3326,1.64638 -0.41197,4.10596 -0.41197,12.76608 v 10.72678 h -6.8673 -6.8673 l -0.078,-12.76615 -0.078,-12.76615 -0.66145,-1.30916 c -0.93717,-1.85485 -1.79287,-2.40177 -3.70251,-2.36645 -1.93787,0.0358 -3.0339,0.64214 -4.147,2.29402 -1.59605,2.36858 -1.766,3.81364 -1.88173,15.99982 l -0.10365,10.91407 h -6.72422 -6.72423 z"
       id="path832"
       inkscape:connector-curvature="0"
       clip-path="url(#clipPath836)"
       transform="translate(111.45139,-5.078121)" />
  </g>
</svg>
